<?xml version="1.0" encoding="UTF-8" standalone="no"?>
<!DOCTYPE svg PUBLIC "-//W3C//DTD SVG 1.1//EN"
 "http://www.w3.org/Graphics/SVG/1.1/DTD/svg11.dtd">
<!-- Generated by graphviz version 9.0.0 (20230911.1827)
 -->
<!-- Title: mygraph Pages: 1 -->
<svg width="1064pt" height="548pt"
 viewBox="0.00 0.00 1064.12 548.00" xmlns="http://www.w3.org/2000/svg" xmlns:xlink="http://www.w3.org/1999/xlink">
<g id="graph0" class="graph" transform="scale(1 1) rotate(0) translate(4 544)">
<title>mygraph</title>
<polygon fill="white" stroke="none" points="-4,4 -4,-544 1060.12,-544 1060.12,4 -4,4"/>
<!-- Tree@202b0582 -->
<g id="node1" class="node">
<title>Tree@202b0582</title>
<polygon fill="none" stroke="black" points="525,-540 471,-540 471,-504 525,-504 525,-540"/>
<text text-anchor="middle" x="498" y="-516.95" font-family="Helvetica,Arial,sans-serif" font-size="14.00">Start</text>
</g>
<!-- Tree@235ecd9f -->
<g id="node2" class="node">
<title>Tree@235ecd9f</title>
<polygon fill="none" stroke="black" points="54,-468 0,-468 0,-432 54,-432 54,-468"/>
<text text-anchor="middle" x="27" y="-444.95" font-family="Helvetica,Arial,sans-serif" font-size="14.00">For</text>
</g>
<!-- Tree@202b0582&#45;&gt;Tree@235ecd9f -->
<g id="edge1" class="edge">
<title>Tree@202b0582&#45;&gt;Tree@235ecd9f</title>
<path fill="none" stroke="black" d="M470.67,-520.68C402.74,-519.25 221.06,-511.59 64.89,-467.99"/>
<polygon fill="black" stroke="black" points="66.2,-464.73 55.62,-465.35 64.27,-471.46 66.2,-464.73"/>
</g>
<!-- Tree@1ca3b418 -->
<g id="node3" class="node">
<title>Tree@1ca3b418</title>
<polygon fill="none" stroke="black" points="144.12,-468 71.88,-468 71.88,-432 144.12,-432 144.12,-468"/>
<text text-anchor="middle" x="108" y="-444.95" font-family="Helvetica,Arial,sans-serif" font-size="14.00">LBracket</text>
</g>
<!-- Tree@202b0582&#45;&gt;Tree@1ca3b418 -->
<g id="edge2" class="edge">
<title>Tree@202b0582&#45;&gt;Tree@1ca3b418</title>
<path fill="none" stroke="black" d="M470.77,-518.76C413.69,-513.67 277.35,-499.35 155.16,-468.26"/>
<polygon fill="black" stroke="black" points="156.16,-464.9 145.6,-465.77 154.4,-471.67 156.16,-464.9"/>
</g>
<!-- Tree@58cbafc2 -->
<g id="node4" class="node">
<title>Tree@58cbafc2</title>
<polygon fill="none" stroke="black" points="216,-468 162,-468 162,-432 216,-432 216,-468"/>
<text text-anchor="middle" x="189" y="-444.95" font-family="Helvetica,Arial,sans-serif" font-size="14.00">Type</text>
</g>
<!-- Tree@202b0582&#45;&gt;Tree@58cbafc2 -->
<g id="edge3" class="edge">
<title>Tree@202b0582&#45;&gt;Tree@58cbafc2</title>
<path fill="none" stroke="black" d="M470.7,-517.99C422.75,-512.22 320.38,-497.75 226.98,-468.2"/>
<polygon fill="black" stroke="black" points="228.26,-464.94 217.67,-465.19 226.1,-471.6 228.26,-464.94"/>
</g>
<!-- Tree@2034b64c -->
<g id="node5" class="node">
<title>Tree@2034b64c</title>
<polygon fill="none" stroke="black" points="288,-468 234,-468 234,-432 288,-432 288,-468"/>
<text text-anchor="middle" x="261" y="-444.95" font-family="Helvetica,Arial,sans-serif" font-size="14.00">Word</text>
</g>
<!-- Tree@202b0582&#45;&gt;Tree@2034b64c -->
<g id="edge4" class="edge">
<title>Tree@202b0582&#45;&gt;Tree@2034b64c</title>
<path fill="none" stroke="black" d="M470.53,-515.43C433.36,-507.55 364.93,-491.77 298.87,-468.35"/>
<polygon fill="black" stroke="black" points="300.31,-465.15 289.72,-465.04 297.93,-471.73 300.31,-465.15"/>
</g>
<!-- Tree@75d3a5e0 -->
<g id="node6" class="node">
<title>Tree@75d3a5e0</title>
<polygon fill="none" stroke="black" points="365.75,-468 306.25,-468 306.25,-432 365.75,-432 365.75,-468"/>
<text text-anchor="middle" x="336" y="-444.95" font-family="Helvetica,Arial,sans-serif" font-size="14.00">Assign</text>
</g>
<!-- Tree@202b0582&#45;&gt;Tree@75d3a5e0 -->
<g id="edge5" class="edge">
<title>Tree@202b0582&#45;&gt;Tree@75d3a5e0</title>
<path fill="none" stroke="black" d="M470.63,-509.24C447.74,-499.41 413.98,-484.87 376.39,-468.6"/>
<polygon fill="black" stroke="black" points="378.18,-465.56 367.62,-464.79 375.4,-471.98 378.18,-465.56"/>
</g>
<!-- Tree@74d1dc36 -->
<g id="node7" class="node">
<title>Tree@74d1dc36</title>
<polygon fill="none" stroke="black" points="438,-468 384,-468 384,-432 438,-432 438,-468"/>
<text text-anchor="middle" x="411" y="-444.95" font-family="Helvetica,Arial,sans-serif" font-size="14.00">Num</text>
</g>
<!-- Tree@202b0582&#45;&gt;Tree@74d1dc36 -->
<g id="edge6" class="edge">
<title>Tree@202b0582&#45;&gt;Tree@74d1dc36</title>
<path fill="none" stroke="black" d="M476.49,-503.7C465.93,-495.2 453.02,-484.81 441.47,-475.51"/>
<polygon fill="black" stroke="black" points="443.72,-472.84 433.74,-469.3 439.34,-478.29 443.72,-472.84"/>
</g>
<!-- Tree@7161d8d1 -->
<g id="node8" class="node">
<title>Tree@7161d8d1</title>
<polygon fill="none" stroke="black" points="539.75,-468 456.25,-468 456.25,-432 539.75,-432 539.75,-468"/>
<text text-anchor="middle" x="498" y="-444.95" font-family="Helvetica,Arial,sans-serif" font-size="14.00">Semicolon</text>
</g>
<!-- Tree@202b0582&#45;&gt;Tree@7161d8d1 -->
<g id="edge7" class="edge">
<title>Tree@202b0582&#45;&gt;Tree@7161d8d1</title>
<path fill="none" stroke="black" d="M498,-503.7C498,-496.41 498,-487.73 498,-479.54"/>
<polygon fill="black" stroke="black" points="501.5,-479.62 498,-469.62 494.5,-479.62 501.5,-479.62"/>
</g>
<!-- Tree@74e28667 -->
<g id="node9" class="node">
<title>Tree@74e28667</title>
<polygon fill="none" stroke="black" points="622.38,-468 557.62,-468 557.62,-432 622.38,-432 622.38,-468"/>
<text text-anchor="middle" x="590" y="-444.95" font-family="Helvetica,Arial,sans-serif" font-size="14.00">CompA</text>
</g>
<!-- Tree@202b0582&#45;&gt;Tree@74e28667 -->
<g id="edge8" class="edge">
<title>Tree@202b0582&#45;&gt;Tree@74e28667</title>
<path fill="none" stroke="black" d="M520.74,-503.7C532.02,-495.11 545.83,-484.61 558.14,-475.24"/>
<polygon fill="black" stroke="black" points="560.16,-478.1 566,-469.26 555.92,-472.53 560.16,-478.1"/>
</g>
<!-- Tree@1cf6d1be -->
<g id="node10" class="node">
<title>Tree@1cf6d1be</title>
<polygon fill="none" stroke="black" points="723.75,-468 640.25,-468 640.25,-432 723.75,-432 723.75,-468"/>
<text text-anchor="middle" x="682" y="-444.95" font-family="Helvetica,Arial,sans-serif" font-size="14.00">Semicolon</text>
</g>
<!-- Tree@202b0582&#45;&gt;Tree@1cf6d1be -->
<g id="edge9" class="edge">
<title>Tree@202b0582&#45;&gt;Tree@1cf6d1be</title>
<path fill="none" stroke="black" d="M525.15,-510.67C552.48,-500.27 595.35,-483.96 629.37,-471.02"/>
<polygon fill="black" stroke="black" points="630.55,-474.32 638.66,-467.49 628.07,-467.77 630.55,-474.32"/>
</g>
<!-- Tree@663c9e7a -->
<g id="node11" class="node">
<title>Tree@663c9e7a</title>
<polygon fill="none" stroke="black" points="796,-468 742,-468 742,-432 796,-432 796,-468"/>
<text text-anchor="middle" x="769" y="-444.95" font-family="Helvetica,Arial,sans-serif" font-size="14.00">Word</text>
</g>
<!-- Tree@202b0582&#45;&gt;Tree@663c9e7a -->
<g id="edge10" class="edge">
<title>Tree@202b0582&#45;&gt;Tree@663c9e7a</title>
<path fill="none" stroke="black" d="M525.32,-516.84C567.79,-509.96 652.18,-494.58 731.14,-468.24"/>
<polygon fill="black" stroke="black" points="731.97,-471.66 740.31,-465.12 729.71,-465.03 731.97,-471.66"/>
</g>
<!-- Tree@19e4653c -->
<g id="node12" class="node">
<title>Tree@19e4653c</title>
<polygon fill="none" stroke="black" points="868,-468 814,-468 814,-432 868,-432 868,-468"/>
<text text-anchor="middle" x="841" y="-444.95" font-family="Helvetica,Arial,sans-serif" font-size="14.00">Inc</text>
</g>
<!-- Tree@202b0582&#45;&gt;Tree@19e4653c -->
<g id="edge11" class="edge">
<title>Tree@202b0582&#45;&gt;Tree@19e4653c</title>
<path fill="none" stroke="black" d="M525.27,-518.78C577.79,-513.99 696.46,-500.63 802.87,-468.19"/>
<polygon fill="black" stroke="black" points="803.84,-471.55 812.35,-465.23 801.76,-464.87 803.84,-471.55"/>
</g>
<!-- Tree@795509d9 -->
<g id="node13" class="node">
<title>Tree@795509d9</title>
<polygon fill="none" stroke="black" points="960.25,-468 885.75,-468 885.75,-432 960.25,-432 960.25,-468"/>
<text text-anchor="middle" x="923" y="-444.95" font-family="Helvetica,Arial,sans-serif" font-size="14.00">RBracket</text>
</g>
<!-- Tree@202b0582&#45;&gt;Tree@795509d9 -->
<g id="edge12" class="edge">
<title>Tree@202b0582&#45;&gt;Tree@795509d9</title>
<path fill="none" stroke="black" d="M525.03,-519.22C586.06,-514.79 739.13,-501.32 874.35,-468.38"/>
<polygon fill="black" stroke="black" points="874.97,-471.84 883.83,-466.03 873.28,-465.04 874.97,-471.84"/>
</g>
<!-- Tree@53045c6c -->
<g id="node14" class="node">
<title>Tree@53045c6c</title>
<polygon fill="none" stroke="black" points="1056.12,-468 977.88,-468 977.88,-432 1056.12,-432 1056.12,-468"/>
<text text-anchor="middle" x="1017" y="-444.95" font-family="Helvetica,Arial,sans-serif" font-size="14.00">&lt;nothing&gt;</text>
</g>
<!-- Tree@202b0582&#45;&gt;Tree@53045c6c -->
<g id="edge13" class="edge">
<title>Tree@202b0582&#45;&gt;Tree@53045c6c</title>
<path fill="none" stroke="black" d="M525.45,-520.1C596.96,-517.28 794.86,-506.58 966.4,-468.31"/>
<polygon fill="black" stroke="black" points="966.94,-471.78 975.92,-466.15 965.39,-464.95 966.94,-471.78"/>
</g>
<!-- Tree@5149d738 -->
<g id="node15" class="node">
<title>Tree@5149d738</title>
<polygon fill="none" stroke="black" points="54,-396 0,-396 0,-360 54,-360 54,-396"/>
<text text-anchor="middle" x="27" y="-372.95" font-family="Helvetica,Arial,sans-serif" font-size="14.00">for</text>
</g>
<!-- Tree@235ecd9f&#45;&gt;Tree@5149d738 -->
<g id="edge14" class="edge">
<title>Tree@235ecd9f&#45;&gt;Tree@5149d738</title>
<path fill="none" stroke="black" d="M27,-431.7C27,-424.41 27,-415.73 27,-407.54"/>
<polygon fill="black" stroke="black" points="30.5,-407.62 27,-397.62 23.5,-407.62 30.5,-407.62"/>
</g>
<!-- Tree@6bbe85a8 -->
<g id="node16" class="node">
<title>Tree@6bbe85a8</title>
<polygon fill="none" stroke="black" points="135,-396 81,-396 81,-360 135,-360 135,-396"/>
<text text-anchor="middle" x="108" y="-372.95" font-family="Helvetica,Arial,sans-serif" font-size="14.00">(</text>
</g>
<!-- Tree@1ca3b418&#45;&gt;Tree@6bbe85a8 -->
<g id="edge15" class="edge">
<title>Tree@1ca3b418&#45;&gt;Tree@6bbe85a8</title>
<path fill="none" stroke="black" d="M108,-431.7C108,-424.41 108,-415.73 108,-407.54"/>
<polygon fill="black" stroke="black" points="111.5,-407.62 108,-397.62 104.5,-407.62 111.5,-407.62"/>
</g>
<!-- Tree@3a7442c7 -->
<g id="node17" class="node">
<title>Tree@3a7442c7</title>
<polygon fill="none" stroke="black" points="216,-396 162,-396 162,-360 216,-360 216,-396"/>
<text text-anchor="middle" x="189" y="-372.95" font-family="Helvetica,Arial,sans-serif" font-size="14.00">int</text>
</g>
<!-- Tree@58cbafc2&#45;&gt;Tree@3a7442c7 -->
<g id="edge16" class="edge">
<title>Tree@58cbafc2&#45;&gt;Tree@3a7442c7</title>
<path fill="none" stroke="black" d="M189,-431.7C189,-424.41 189,-415.73 189,-407.54"/>
<polygon fill="black" stroke="black" points="192.5,-407.62 189,-397.62 185.5,-407.62 192.5,-407.62"/>
</g>
<!-- Tree@4be29ed9 -->
<g id="node18" class="node">
<title>Tree@4be29ed9</title>
<polygon fill="none" stroke="black" points="288,-396 234,-396 234,-360 288,-360 288,-396"/>
<text text-anchor="middle" x="261" y="-372.95" font-family="Helvetica,Arial,sans-serif" font-size="14.00">x</text>
</g>
<!-- Tree@2034b64c&#45;&gt;Tree@4be29ed9 -->
<g id="edge17" class="edge">
<title>Tree@2034b64c&#45;&gt;Tree@4be29ed9</title>
<path fill="none" stroke="black" d="M261,-431.7C261,-424.41 261,-415.73 261,-407.54"/>
<polygon fill="black" stroke="black" points="264.5,-407.62 261,-397.62 257.5,-407.62 264.5,-407.62"/>
</g>
<!-- Tree@548d708a -->
<g id="node19" class="node">
<title>Tree@548d708a</title>
<polygon fill="none" stroke="black" points="360,-396 306,-396 306,-360 360,-360 360,-396"/>
<text text-anchor="middle" x="333" y="-372.95" font-family="Helvetica,Arial,sans-serif" font-size="14.00">=</text>
</g>
<!-- Tree@75d3a5e0&#45;&gt;Tree@548d708a -->
<g id="edge18" class="edge">
<title>Tree@75d3a5e0&#45;&gt;Tree@548d708a</title>
<path fill="none" stroke="black" d="M335.26,-431.7C334.95,-424.41 334.57,-415.73 334.22,-407.54"/>
<polygon fill="black" stroke="black" points="337.72,-407.46 333.8,-397.62 330.73,-407.76 337.72,-407.46"/>
</g>
<!-- Tree@4b013c76 -->
<g id="node20" class="node">
<title>Tree@4b013c76</title>
<polygon fill="none" stroke="black" points="432,-396 378,-396 378,-360 432,-360 432,-396"/>
<text text-anchor="middle" x="405" y="-372.95" font-family="Helvetica,Arial,sans-serif" font-size="14.00">0</text>
</g>
<!-- Tree@74d1dc36&#45;&gt;Tree@4b013c76 -->
<g id="edge19" class="edge">
<title>Tree@74d1dc36&#45;&gt;Tree@4b013c76</title>
<path fill="none" stroke="black" d="M409.52,-431.7C408.89,-424.41 408.15,-415.73 407.45,-407.54"/>
<polygon fill="black" stroke="black" points="410.94,-407.28 406.6,-397.61 403.96,-407.87 410.94,-407.28"/>
</g>
<!-- Tree@53fb3dab -->
<g id="node21" class="node">
<title>Tree@53fb3dab</title>
<polygon fill="none" stroke="black" points="504,-396 450,-396 450,-360 504,-360 504,-396"/>
<text text-anchor="middle" x="477" y="-372.95" font-family="Helvetica,Arial,sans-serif" font-size="14.00">;</text>
</g>
<!-- Tree@7161d8d1&#45;&gt;Tree@53fb3dab -->
<g id="edge20" class="edge">
<title>Tree@7161d8d1&#45;&gt;Tree@53fb3dab</title>
<path fill="none" stroke="black" d="M492.81,-431.7C490.57,-424.24 487.9,-415.32 485.39,-406.97"/>
<polygon fill="black" stroke="black" points="488.79,-406.13 482.57,-397.55 482.09,-408.14 488.79,-406.13"/>
</g>
<!-- Tree@cb0755b -->
<g id="node22" class="node">
<title>Tree@cb0755b</title>
<polygon fill="none" stroke="black" points="586.38,-396 521.62,-396 521.62,-360 586.38,-360 586.38,-396"/>
<text text-anchor="middle" x="554" y="-372.95" font-family="Helvetica,Arial,sans-serif" font-size="14.00">CompB</text>
</g>
<!-- Tree@74e28667&#45;&gt;Tree@cb0755b -->
<g id="edge21" class="edge">
<title>Tree@74e28667&#45;&gt;Tree@cb0755b</title>
<path fill="none" stroke="black" d="M581.1,-431.7C577.13,-423.98 572.37,-414.71 567.94,-406.11"/>
<polygon fill="black" stroke="black" points="571.17,-404.74 563.49,-397.45 564.95,-407.94 571.17,-404.74"/>
</g>
<!-- Tree@33065d67 -->
<g id="node23" class="node">
<title>Tree@33065d67</title>
<polygon fill="none" stroke="black" points="671.88,-396 604.12,-396 604.12,-360 671.88,-360 671.88,-396"/>
<text text-anchor="middle" x="638" y="-372.95" font-family="Helvetica,Arial,sans-serif" font-size="14.00">CompA&#39;</text>
</g>
<!-- Tree@74e28667&#45;&gt;Tree@33065d67 -->
<g id="edge22" class="edge">
<title>Tree@74e28667&#45;&gt;Tree@33065d67</title>
<path fill="none" stroke="black" d="M601.87,-431.7C607.27,-423.81 613.79,-414.3 619.8,-405.55"/>
<polygon fill="black" stroke="black" points="622.65,-407.58 625.42,-397.35 616.87,-403.62 622.65,-407.58"/>
</g>
<!-- Tree@4b29d1d2 -->
<g id="node37" class="node">
<title>Tree@4b29d1d2</title>
<polygon fill="none" stroke="black" points="744,-396 690,-396 690,-360 744,-360 744,-396"/>
<text text-anchor="middle" x="717" y="-372.95" font-family="Helvetica,Arial,sans-serif" font-size="14.00">;</text>
</g>
<!-- Tree@1cf6d1be&#45;&gt;Tree@4b29d1d2 -->
<g id="edge36" class="edge">
<title>Tree@1cf6d1be&#45;&gt;Tree@4b29d1d2</title>
<path fill="none" stroke="black" d="M690.65,-431.7C694.47,-424.07 699.04,-414.92 703.3,-406.4"/>
<polygon fill="black" stroke="black" points="706.43,-407.97 707.77,-397.46 700.17,-404.84 706.43,-407.97"/>
</g>
<!-- Tree@7f485fda -->
<g id="node38" class="node">
<title>Tree@7f485fda</title>
<polygon fill="none" stroke="black" points="816,-396 762,-396 762,-360 816,-360 816,-396"/>
<text text-anchor="middle" x="789" y="-372.95" font-family="Helvetica,Arial,sans-serif" font-size="14.00">x</text>
</g>
<!-- Tree@663c9e7a&#45;&gt;Tree@7f485fda -->
<g id="edge37" class="edge">
<title>Tree@663c9e7a&#45;&gt;Tree@7f485fda</title>
<path fill="none" stroke="black" d="M773.94,-431.7C776.08,-424.24 778.62,-415.32 781.01,-406.97"/>
<polygon fill="black" stroke="black" points="784.32,-408.14 783.7,-397.56 777.58,-406.21 784.32,-408.14"/>
</g>
<!-- Tree@28261e8e -->
<g id="node39" class="node">
<title>Tree@28261e8e</title>
<polygon fill="none" stroke="black" points="888,-396 834,-396 834,-360 888,-360 888,-396"/>
<text text-anchor="middle" x="861" y="-372.95" font-family="Helvetica,Arial,sans-serif" font-size="14.00">++</text>
</g>
<!-- Tree@19e4653c&#45;&gt;Tree@28261e8e -->
<g id="edge38" class="edge">
<title>Tree@19e4653c&#45;&gt;Tree@28261e8e</title>
<path fill="none" stroke="black" d="M845.94,-431.7C848.08,-424.24 850.62,-415.32 853.01,-406.97"/>
<polygon fill="black" stroke="black" points="856.32,-408.14 855.7,-397.56 849.58,-406.21 856.32,-408.14"/>
</g>
<!-- Tree@d737b89 -->
<g id="node40" class="node">
<title>Tree@d737b89</title>
<polygon fill="none" stroke="black" points="960,-396 906,-396 906,-360 960,-360 960,-396"/>
<text text-anchor="middle" x="933" y="-372.95" font-family="Helvetica,Arial,sans-serif" font-size="14.00">)</text>
</g>
<!-- Tree@795509d9&#45;&gt;Tree@d737b89 -->
<g id="edge39" class="edge">
<title>Tree@795509d9&#45;&gt;Tree@d737b89</title>
<path fill="none" stroke="black" d="M925.47,-431.7C926.53,-424.32 927.78,-415.52 928.96,-407.25"/>
<polygon fill="black" stroke="black" points="932.39,-408 930.34,-397.6 925.46,-407.01 932.39,-408"/>
</g>
<!-- Tree@712625fd -->
<g id="node24" class="node">
<title>Tree@712625fd</title>
<polygon fill="none" stroke="black" points="498.75,-324 433.25,-324 433.25,-288 498.75,-288 498.75,-324"/>
<text text-anchor="middle" x="466" y="-300.95" font-family="Helvetica,Arial,sans-serif" font-size="14.00">CompC</text>
</g>
<!-- Tree@cb0755b&#45;&gt;Tree@712625fd -->
<g id="edge23" class="edge">
<title>Tree@cb0755b&#45;&gt;Tree@712625fd</title>
<path fill="none" stroke="black" d="M532.25,-359.7C521.56,-351.2 508.51,-340.81 496.82,-331.51"/>
<polygon fill="black" stroke="black" points="499,-328.78 488.99,-325.29 494.64,-334.25 499,-328.78"/>
</g>
<!-- Tree@7bba5817 -->
<g id="node25" class="node">
<title>Tree@7bba5817</title>
<polygon fill="none" stroke="black" points="587.88,-324 520.12,-324 520.12,-288 587.88,-288 587.88,-324"/>
<text text-anchor="middle" x="554" y="-300.95" font-family="Helvetica,Arial,sans-serif" font-size="14.00">CompB&#39;</text>
</g>
<!-- Tree@cb0755b&#45;&gt;Tree@7bba5817 -->
<g id="edge24" class="edge">
<title>Tree@cb0755b&#45;&gt;Tree@7bba5817</title>
<path fill="none" stroke="black" d="M554,-359.7C554,-352.41 554,-343.73 554,-335.54"/>
<polygon fill="black" stroke="black" points="557.5,-335.62 554,-325.62 550.5,-335.62 557.5,-335.62"/>
</g>
<!-- Tree@1349883 -->
<g id="node36" class="node">
<title>Tree@1349883</title>
<polygon fill="none" stroke="black" points="684.12,-324 605.88,-324 605.88,-288 684.12,-288 684.12,-324"/>
<text text-anchor="middle" x="645" y="-300.95" font-family="Helvetica,Arial,sans-serif" font-size="14.00">&lt;nothing&gt;</text>
</g>
<!-- Tree@33065d67&#45;&gt;Tree@1349883 -->
<g id="edge35" class="edge">
<title>Tree@33065d67&#45;&gt;Tree@1349883</title>
<path fill="none" stroke="black" d="M639.73,-359.7C640.46,-352.41 641.33,-343.73 642.15,-335.54"/>
<polygon fill="black" stroke="black" points="645.63,-335.91 643.14,-325.61 638.66,-335.21 645.63,-335.91"/>
</g>
<!-- Tree@742ff096 -->
<g id="node26" class="node">
<title>Tree@742ff096</title>
<polygon fill="none" stroke="black" points="410.75,-252 345.25,-252 345.25,-216 410.75,-216 410.75,-252"/>
<text text-anchor="middle" x="378" y="-228.95" font-family="Helvetica,Arial,sans-serif" font-size="14.00">CompD</text>
</g>
<!-- Tree@712625fd&#45;&gt;Tree@742ff096 -->
<g id="edge25" class="edge">
<title>Tree@712625fd&#45;&gt;Tree@742ff096</title>
<path fill="none" stroke="black" d="M444.25,-287.7C433.56,-279.2 420.51,-268.81 408.82,-259.51"/>
<polygon fill="black" stroke="black" points="411,-256.78 400.99,-253.29 406.64,-262.25 411,-256.78"/>
</g>
<!-- Tree@75437611 -->
<g id="node27" class="node">
<title>Tree@75437611</title>
<polygon fill="none" stroke="black" points="500.25,-252 431.75,-252 431.75,-216 500.25,-216 500.25,-252"/>
<text text-anchor="middle" x="466" y="-228.95" font-family="Helvetica,Arial,sans-serif" font-size="14.00">CompC&#39;</text>
</g>
<!-- Tree@712625fd&#45;&gt;Tree@75437611 -->
<g id="edge26" class="edge">
<title>Tree@712625fd&#45;&gt;Tree@75437611</title>
<path fill="none" stroke="black" d="M466,-287.7C466,-280.41 466,-271.73 466,-263.54"/>
<polygon fill="black" stroke="black" points="469.5,-263.62 466,-253.62 462.5,-263.62 469.5,-263.62"/>
</g>
<!-- Tree@4a83a74a -->
<g id="node35" class="node">
<title>Tree@4a83a74a</title>
<polygon fill="none" stroke="black" points="596.12,-252 517.88,-252 517.88,-216 596.12,-216 596.12,-252"/>
<text text-anchor="middle" x="557" y="-228.95" font-family="Helvetica,Arial,sans-serif" font-size="14.00">&lt;nothing&gt;</text>
</g>
<!-- Tree@7bba5817&#45;&gt;Tree@4a83a74a -->
<g id="edge34" class="edge">
<title>Tree@7bba5817&#45;&gt;Tree@4a83a74a</title>
<path fill="none" stroke="black" d="M554.74,-287.7C555.05,-280.41 555.43,-271.73 555.78,-263.54"/>
<polygon fill="black" stroke="black" points="559.27,-263.76 556.2,-253.62 552.28,-263.46 559.27,-263.76"/>
</g>
<!-- Tree@350aac89 -->
<g id="node28" class="node">
<title>Tree@350aac89</title>
<polygon fill="none" stroke="black" points="326,-180 272,-180 272,-144 326,-144 326,-180"/>
<text text-anchor="middle" x="299" y="-156.95" font-family="Helvetica,Arial,sans-serif" font-size="14.00">x</text>
</g>
<!-- Tree@742ff096&#45;&gt;Tree@350aac89 -->
<g id="edge27" class="edge">
<title>Tree@742ff096&#45;&gt;Tree@350aac89</title>
<path fill="none" stroke="black" d="M358.47,-215.7C348.98,-207.28 337.39,-197.02 326.98,-187.79"/>
<polygon fill="black" stroke="black" points="329.52,-185.36 319.71,-181.35 324.87,-190.6 329.52,-185.36"/>
</g>
<!-- Tree@1c5920df -->
<g id="node29" class="node">
<title>Tree@1c5920df</title>
<polygon fill="none" stroke="black" points="412.25,-180 343.75,-180 343.75,-144 412.25,-144 412.25,-180"/>
<text text-anchor="middle" x="378" y="-156.95" font-family="Helvetica,Arial,sans-serif" font-size="14.00">CompD&#39;</text>
</g>
<!-- Tree@742ff096&#45;&gt;Tree@1c5920df -->
<g id="edge28" class="edge">
<title>Tree@742ff096&#45;&gt;Tree@1c5920df</title>
<path fill="none" stroke="black" d="M378,-215.7C378,-208.41 378,-199.73 378,-191.54"/>
<polygon fill="black" stroke="black" points="381.5,-191.62 378,-181.62 374.5,-191.62 381.5,-191.62"/>
</g>
<!-- Tree@15043a2f -->
<g id="node34" class="node">
<title>Tree@15043a2f</title>
<polygon fill="none" stroke="black" points="508.12,-180 429.88,-180 429.88,-144 508.12,-144 508.12,-180"/>
<text text-anchor="middle" x="469" y="-156.95" font-family="Helvetica,Arial,sans-serif" font-size="14.00">&lt;nothing&gt;</text>
</g>
<!-- Tree@75437611&#45;&gt;Tree@15043a2f -->
<g id="edge33" class="edge">
<title>Tree@75437611&#45;&gt;Tree@15043a2f</title>
<path fill="none" stroke="black" d="M466.74,-215.7C467.05,-208.41 467.43,-199.73 467.78,-191.54"/>
<polygon fill="black" stroke="black" points="471.27,-191.76 468.2,-181.62 464.28,-191.46 471.27,-191.76"/>
</g>
<!-- Tree@17f9d882 -->
<g id="node30" class="node">
<title>Tree@17f9d882</title>
<polygon fill="none" stroke="black" points="333,-108 279,-108 279,-72 333,-72 333,-108"/>
<text text-anchor="middle" x="306" y="-84.95" font-family="Helvetica,Arial,sans-serif" font-size="14.00">&lt;</text>
</g>
<!-- Tree@1c5920df&#45;&gt;Tree@17f9d882 -->
<g id="edge29" class="edge">
<title>Tree@1c5920df&#45;&gt;Tree@17f9d882</title>
<path fill="none" stroke="black" d="M360.2,-143.7C351.72,-135.45 341.41,-125.43 332.07,-116.35"/>
<polygon fill="black" stroke="black" points="334.54,-113.86 324.93,-109.4 329.66,-118.88 334.54,-113.86"/>
</g>
<!-- Tree@79e4c792 -->
<g id="node31" class="node">
<title>Tree@79e4c792</title>
<polygon fill="none" stroke="black" points="405,-108 351,-108 351,-72 405,-72 405,-108"/>
<text text-anchor="middle" x="378" y="-84.95" font-family="Helvetica,Arial,sans-serif" font-size="14.00">10</text>
</g>
<!-- Tree@1c5920df&#45;&gt;Tree@79e4c792 -->
<g id="edge30" class="edge">
<title>Tree@1c5920df&#45;&gt;Tree@79e4c792</title>
<path fill="none" stroke="black" d="M378,-143.7C378,-136.41 378,-127.73 378,-119.54"/>
<polygon fill="black" stroke="black" points="381.5,-119.62 378,-109.62 374.5,-119.62 381.5,-119.62"/>
</g>
<!-- Tree@196a42c3 -->
<g id="node32" class="node">
<title>Tree@196a42c3</title>
<polygon fill="none" stroke="black" points="491.25,-108 422.75,-108 422.75,-72 491.25,-72 491.25,-108"/>
<text text-anchor="middle" x="457" y="-84.95" font-family="Helvetica,Arial,sans-serif" font-size="14.00">CompD&#39;</text>
</g>
<!-- Tree@1c5920df&#45;&gt;Tree@196a42c3 -->
<g id="edge31" class="edge">
<title>Tree@1c5920df&#45;&gt;Tree@196a42c3</title>
<path fill="none" stroke="black" d="M397.53,-143.7C407.02,-135.28 418.61,-125.02 429.02,-115.79"/>
<polygon fill="black" stroke="black" points="431.13,-118.6 436.29,-109.35 426.48,-113.36 431.13,-118.6"/>
</g>
<!-- Tree@4c60d6e9 -->
<g id="node33" class="node">
<title>Tree@4c60d6e9</title>
<polygon fill="none" stroke="black" points="496.12,-36 417.88,-36 417.88,0 496.12,0 496.12,-36"/>
<text text-anchor="middle" x="457" y="-12.95" font-family="Helvetica,Arial,sans-serif" font-size="14.00">&lt;nothing&gt;</text>
</g>
<!-- Tree@196a42c3&#45;&gt;Tree@4c60d6e9 -->
<g id="edge32" class="edge">
<title>Tree@196a42c3&#45;&gt;Tree@4c60d6e9</title>
<path fill="none" stroke="black" d="M457,-71.7C457,-64.41 457,-55.73 457,-47.54"/>
<polygon fill="black" stroke="black" points="460.5,-47.62 457,-37.62 453.5,-47.62 460.5,-47.62"/>
</g>
</g>
</svg>